<svg width="164" height="91" viewBox="0 0 164 91" fill="none" xmlns="http://www.w3.org/2000/svg">
<g filter="url(#filter0_d_66_17)">
<path fill-rule="evenodd" clip-rule="evenodd" d="M70.6526 13.76C74.9072 5.58418 83.4572 0 93.3102 0C103.116 0 111.631 5.53037 115.906 13.6417C115.935 13.6963 115.995 13.7239 116.055 13.7096C116.115 13.6955 116.156 13.6445 116.158 13.583C116.188 12.4351 116.361 11.2667 116.825 10.2136C116.84 10.1804 116.853 10.1523 116.868 10.1196C117.494 8.8114 118.509 7.79557 119.764 7.08354C120.977 6.39492 122.317 6.04444 123.712 6.04444C124.706 6.04444 125.7 6.19015 126.626 6.56422C127.434 6.89078 128.177 7.34457 128.826 7.92829C129.398 8.44341 129.901 9.03411 130.355 9.65496C130.732 10.172 131.113 10.6865 131.485 11.2076L139.019 21.2415C139.054 21.2883 139.113 21.3066 139.168 21.288C139.224 21.2695 139.26 21.2197 139.26 21.1611V13.0084C139.26 11.1423 139.762 9.33198 141.091 7.96552C142.366 6.65476 144.053 6.04444 145.868 6.04444C147.689 6.04444 149.397 6.63279 150.687 7.94157C152.035 9.30763 152.543 11.1312 152.543 13.0084V37.5536C152.543 42.0238 149.88 45.0046 145.331 45.0046C144.397 45.0046 143.47 44.8839 142.578 44.6015C141.672 44.3145 140.828 43.8618 140.08 43.2763C139.416 42.7568 138.826 42.1592 138.294 41.5067C138.018 41.1691 137.745 40.83 137.473 40.4892C137.441 40.4484 137.391 40.4308 137.34 40.4418C137.289 40.4528 137.252 40.4893 137.239 40.5399C137.141 40.9291 137.031 41.3165 136.915 41.6997C135.801 45.3613 133.892 48.7946 131.499 51.7771C131.457 51.8286 131.459 51.9012 131.504 51.9503C131.548 51.9993 131.62 52.009 131.675 51.9735C132.809 51.2477 134.042 50.574 135.257 50.0921C136.185 49.7241 137.242 50.181 137.61 51.1092C137.978 52.0373 137.521 53.0944 136.593 53.4624C135.622 53.8475 134.553 54.4485 133.674 55.0015C132.365 55.8259 131.078 56.8265 130.01 57.9931C129.98 58.0268 129.968 58.0696 129.979 58.114C129.989 58.1583 130.018 58.1918 130.061 58.2082C130.464 58.3641 130.889 58.4651 131.317 58.5179C134.661 58.9305 138.488 56.5844 141.164 54.5028C141.226 54.4544 141.261 54.3889 141.267 54.3104C141.396 52.4687 142.454 50.5271 143.694 49.2017C144.405 48.4413 145.281 47.7813 146.274 47.4438C147.221 47.1224 148.279 47.1083 149.165 47.6154C151.212 48.7864 150.728 51.1213 149.6 52.7506C149.564 52.8022 149.568 52.8696 149.61 52.9162C149.652 52.9628 149.719 52.9742 149.774 52.9442C152.22 51.6101 154.321 49.5365 156.676 45.9701C157.226 45.137 158.354 44.9062 159.187 45.4563C160.02 46.0064 160.251 47.1347 159.701 47.9678C158.499 49.7878 156.972 51.659 155.482 53.2384C154.204 54.5941 152.776 55.9077 151.221 56.9387C149.656 57.9763 147.834 58.8016 145.924 58.8092C144.783 58.8138 143.63 58.5739 142.725 57.8707C139.338 60.3881 135.065 62.6333 130.873 62.1161C130.339 62.0502 129.772 61.9248 129.21 61.7422C129.168 61.7286 129.126 61.7352 129.091 61.7611C129.055 61.787 129.035 61.825 129.035 61.8692C129.034 62.4343 129.04 63.0049 129.067 63.5654C129.115 64.5627 128.34 65.415 127.343 65.4627C126.346 65.5104 125.493 64.7359 125.446 63.7387C125.354 61.8246 125.411 59.8371 125.525 57.9129C125.528 57.8608 125.503 57.8145 125.458 57.7887C125.412 57.7629 125.36 57.765 125.316 57.7942C123.828 58.8025 122.118 59.6017 120.418 59.6813C120.344 59.6849 120.287 59.7474 120.29 59.8209C120.347 61.0789 120.184 62.335 119.81 63.4579C119.384 64.7351 118.619 65.8787 117.5 66.6467C116.492 67.3388 115.275 67.6616 114.057 67.5079C111.987 67.2467 110.624 65.8242 110.044 64.0271C110.032 63.9881 110.005 63.9595 109.967 63.9441C109.929 63.9287 109.89 63.9308 109.854 63.9502C109.118 64.3436 108.33 64.6455 107.501 64.8502C106.15 65.184 104.658 65.1909 103.551 64.2224C102.945 63.6922 102.607 62.9944 102.47 62.2391C102.461 62.1898 102.429 62.152 102.381 62.1361C102.334 62.1202 102.285 62.1307 102.248 62.1647C101.48 62.874 100.74 63.7561 100.109 64.5342C99.9082 66.5155 99.4923 68.476 98.9329 70.5448C98.6722 71.5086 97.6735 72.0821 96.7098 71.8214C95.6491 71.5345 95.715 70.6507 95.1747 70.6561C94.9345 70.6586 94.6612 70.8706 94.6698 71.7629C94.6938 74.2442 94.8171 76.7226 94.9803 79.192C95.0461 80.1883 94.2872 81.0545 93.291 81.1203C92.2948 81.1861 91.4285 80.4273 91.3627 79.4311C91.0354 74.4779 90.938 69.4894 91.0986 64.516C91.1 64.4723 91.0823 64.434 91.048 64.4069C91.0138 64.3797 90.9725 64.3711 90.9303 64.3825C90.6735 64.4513 90.4191 64.5243 90.1727 64.5964C88.5985 65.057 87.0471 65.6385 85.5502 66.3076C84.0262 66.9889 82.5452 67.7691 81.1263 68.6475C81.0655 68.6851 81.0451 68.7637 81.0798 68.8262C81.6207 69.8003 81.8876 70.9205 81.7562 72.1881C81.5178 74.489 80.0082 76.5625 78.3924 78.1288C76.6448 79.8228 73.1124 82.3339 70.6028 82.3842C69.1066 82.4142 67.5241 81.9841 66.946 80.4384C66.5165 79.29 66.9088 78.0796 67.4627 77.0527C68.2877 75.523 69.4745 74.2406 70.5913 72.9252C71.9395 71.3372 73.4276 69.8827 75.027 68.5639C75.0626 68.5345 75.0797 68.4929 75.0749 68.447C75.0702 68.4011 75.045 68.3638 75.0042 68.3423C73.8887 67.7552 72.754 67.2091 71.6069 66.6828C70.3629 66.1119 69.1024 65.5688 67.8694 64.9752C65.9504 64.0515 64.0331 62.6836 63.2379 60.6254C62.3299 58.2751 63.2158 55.9395 64.6402 54.0151C67.3769 50.318 71.5265 46.4456 75.7058 44.465C75.8128 44.4142 75.9224 44.364 76.0342 44.3144C73.8597 42.3139 72.033 39.9412 70.6559 37.2969C70.6258 37.239 70.56 37.2116 70.4977 37.2309C70.4355 37.2502 70.3967 37.3099 70.4045 37.3746C70.442 37.6878 70.4604 38.0063 70.4604 38.3282C70.4604 40.144 69.8501 41.8308 68.5393 43.1058C67.1729 44.4348 65.3626 44.937 63.4964 44.937C57.3605 44.937 51.2246 44.937 45.0887 44.937C43.2226 44.937 41.4123 44.4348 40.0458 43.1058C39.7596 42.8274 39.5068 42.5293 39.2864 42.2146C39.2606 42.1777 39.2218 42.1575 39.1768 42.1575C39.1317 42.1575 39.093 42.1778 39.0672 42.2147C37.8521 43.9538 35.8373 44.9723 33.1785 44.9723C32.2445 44.9723 31.3172 44.8516 30.4253 44.5692C29.519 44.2823 28.6754 43.8295 27.9273 43.244C27.2635 42.7245 26.6734 42.1269 26.1411 41.4745C25.7356 40.9775 25.3339 40.4774 24.9376 39.973C24.9174 39.9474 24.9005 39.9253 24.8811 39.899L17.6736 30.1829C17.6386 30.1357 17.58 30.1171 17.5242 30.1355C17.4685 30.154 17.4324 30.2039 17.4324 30.2625V38.0083C17.4324 39.9247 16.8753 41.76 15.4691 43.1179C14.1727 44.3698 12.5114 44.9723 10.7162 44.9723C8.89158 44.9723 7.19726 44.3663 5.90107 43.0656C4.5437 41.7036 4 39.8968 4 38.0083V13.9356C4 12.666 4.15639 11.3524 4.67234 10.1813C4.68695 10.1481 4.69983 10.1201 4.71547 10.0874C5.34083 8.77916 6.35634 7.76329 7.61092 7.05126C8.82413 6.36268 10.1644 6.01216 11.5591 6.01216C12.5535 6.01216 13.5476 6.15791 14.4732 6.53195C15.2814 6.85851 16.0247 7.31229 16.673 7.89605C17.245 8.41113 17.7485 9.00183 18.202 9.62268C18.5796 10.1398 18.9606 10.6542 19.3325 11.1754L26.8662 21.2092C26.9014 21.256 26.9599 21.2743 27.0155 21.2558C27.0711 21.2372 27.107 21.1875 27.107 21.1289V12.9762C27.107 11.11 27.6092 9.2997 28.9382 7.93328C31.4353 5.36599 36.0207 5.36049 38.5347 7.90929C38.7662 8.14402 38.9729 8.39221 39.1566 8.65186C39.1822 8.68815 39.2203 8.70802 39.2647 8.70838C39.3092 8.70874 39.3475 8.68949 39.3738 8.65364C39.5661 8.39079 39.7819 8.14007 40.0218 7.90336C41.3879 6.55597 43.2115 6.04748 45.0887 6.04748C51.2246 6.04748 57.3605 6.04748 63.4964 6.04748C65.3737 6.04748 67.1972 6.55594 68.5633 7.90336C69.872 9.19423 70.4604 10.9017 70.4604 12.7224C70.4604 13.0468 70.4409 13.3671 70.4014 13.6817C70.3933 13.7463 70.4316 13.8062 70.4937 13.8259C70.5562 13.8457 70.6224 13.8182 70.6526 13.76ZM133.194 34.7549L129.826 30.2151C129.791 30.168 129.733 30.1494 129.677 30.1678C129.621 30.1862 129.585 30.2361 129.585 30.2948L129.567 38.9414C129.565 39.0056 129.575 39.0633 129.636 39.0822C129.697 39.1012 129.762 39.075 129.793 39.0187C130.5 37.7295 131.326 36.5814 132.293 35.649C132.557 35.3935 132.847 35.1509 133.16 34.9466C133.192 34.9257 133.211 34.8958 133.218 34.8582C133.225 34.8205 133.217 34.7857 133.194 34.7549ZM127.838 42.9311C127.768 43.0053 127.696 43.0784 127.622 43.1501C126.325 44.4021 124.664 45.0046 122.869 45.0046C121.044 45.0046 119.35 44.3986 118.054 43.0979C116.696 41.7358 116.153 39.929 116.153 38.0406V37.4812C116.153 37.4189 116.112 37.3663 116.051 37.3513C115.991 37.3363 115.93 37.3636 115.901 37.4187C115.824 37.5642 115.746 37.7089 115.666 37.8527C113.096 42.5038 109.116 46.2675 104.303 48.5677C104.244 48.5961 104.214 48.6618 104.232 48.7251C104.25 48.7883 104.31 48.8284 104.375 48.8213C105.036 48.7497 105.695 48.7142 106.339 48.7288C107.337 48.7515 108.132 49.5841 108.11 50.5823C108.087 51.5805 107.254 52.3761 106.256 52.3533C104.542 52.3143 102.573 52.7602 100.922 53.197C99.1129 53.6753 97.3266 54.2572 95.5501 54.8505C95.4483 54.8845 95.38 54.9695 95.3687 55.0761C95.0685 57.9187 94.8317 60.8313 94.7532 63.6856C94.7518 63.7337 94.7741 63.7758 94.8147 63.8018C94.8553 63.8279 94.9027 63.8306 94.946 63.8093C95.5352 63.5201 95.7298 63.3897 96.2357 63.0134C96.3012 62.9648 96.3381 62.8967 96.3431 62.8153C96.4236 61.5155 96.6076 60.3706 96.4142 58.9547C96.279 57.9654 96.9755 57.0483 97.9648 56.9132C98.954 56.778 99.871 57.4746 100.006 58.4638C100.03 58.6344 100.051 58.8042 100.071 58.973C100.077 59.0231 100.107 59.0631 100.154 59.0818C100.201 59.1004 100.251 59.0924 100.29 59.06C100.359 59.0021 100.428 58.9453 100.498 58.8897C101.662 57.9595 103.251 57.1877 104.671 58.0967C105.594 58.6874 105.886 59.5744 105.98 60.5386C106 60.7356 106.011 60.936 106.017 61.1376C106.019 61.2177 106.053 61.2856 106.115 61.3364C106.177 61.3871 106.25 61.4064 106.329 61.3929C106.452 61.372 106.564 61.3472 106.632 61.3305C110.886 60.2798 110.32 56.8653 113.903 55.034C114.24 54.8621 114.606 54.806 114.956 54.8509C115.032 54.5077 115.209 54.1833 115.484 53.9257C116.212 53.243 117.363 53.2804 118.046 54.0089C118.546 54.5424 118.961 55.1574 119.293 55.8247C120.729 56.6147 122.861 55.1446 123.939 54.3194C124.662 53.7655 125.322 53.1745 125.948 52.5524C126.013 52.4871 126.051 52.4117 126.063 52.3198C126.45 49.3584 127.057 46.0705 128.062 43.0648C128.082 43.0045 128.058 42.9401 128.004 42.9075C127.949 42.875 127.881 42.8846 127.838 42.9311ZM91.9071 51.0117C89.7728 50.8961 87.708 50.5188 85.7448 49.9103C85.6147 49.87 85.4768 49.9324 85.4213 50.0567C85.3878 50.1317 85.3532 50.2064 85.3177 50.2808C85.2804 50.359 85.2817 50.4421 85.3215 50.519C85.3612 50.5959 85.4284 50.645 85.5137 50.6597C85.9414 50.7334 86.3442 50.9594 86.6319 51.3265C87.1289 51.9608 87.1343 52.8278 86.7049 53.4624C86.6742 53.5078 86.6736 53.5638 86.7031 53.6099C86.7328 53.6559 86.7841 53.6785 86.8381 53.6693C87.4761 53.5602 88.1765 53.3821 88.477 53.3016C89.6167 52.9962 90.7531 52.6333 91.8824 52.2576C91.9824 52.2244 92.0501 52.142 92.0634 52.0374C92.0939 51.7963 92.1253 51.5553 92.1577 51.3144C92.1679 51.2377 92.1479 51.1678 92.0986 51.1082C92.0492 51.0486 91.9844 51.0159 91.9071 51.0117ZM82.1522 48.4882L82.1247 48.4747C82.356 47.8185 82.3161 47.2497 81.7308 46.9626C81.0643 46.6359 80.1019 46.751 79.1224 47.0449C78.4756 47.2198 77.8419 47.4646 77.2585 47.7411C76.6013 48.0526 75.9417 48.4228 75.288 48.839C75.2732 48.8482 75.2656 48.853 75.2656 48.853C72.3182 50.7347 69.4934 53.5524 67.5543 56.1721C66.9375 57.0053 66.2053 58.2461 66.6197 59.3188C67.0364 60.3972 68.4594 61.2356 69.4419 61.7086C70.6544 62.2922 71.8954 62.8262 73.1189 63.3876C74.6789 64.1035 76.2164 64.8548 77.7177 65.6878C77.9223 65.8014 78.1229 65.9204 78.3186 66.0449C78.3639 66.0736 78.4185 66.0733 78.4634 66.0441C80.2463 64.8835 82.1257 63.8673 84.0706 62.9979C85.7173 62.2618 87.4229 61.6236 89.1546 61.1169C89.8108 60.9249 90.5037 60.7342 91.1791 60.6C91.2395 60.588 91.2828 60.5384 91.2865 60.4769C91.3447 59.5221 91.4128 58.5683 91.4908 57.6159C91.5197 57.2642 91.5498 56.9111 91.5812 56.557C91.5894 56.4653 91.5544 56.3828 91.4828 56.3251C91.4112 56.2673 91.3232 56.2504 91.2354 56.2778C90.4036 56.5363 89.5681 56.7762 88.7334 56.9778C87.2566 57.3343 85.2537 57.7185 83.8887 56.849C83.1297 56.3655 82.5644 55.6986 82.3378 54.9191C82.3112 54.8276 82.2447 54.7617 82.153 54.736C82.0613 54.7104 81.9702 54.7322 81.9 54.7966C79.3846 57.1053 76.0797 58.6803 72.7219 58.9856C71.7276 59.076 70.8429 58.3387 70.7525 57.3444C70.6621 56.3501 71.3994 55.4654 72.3936 55.375C74.9989 55.1381 77.6054 53.8557 79.5513 52.0298L79.5558 52.0255C80.0399 51.5708 80.4832 51.0826 80.8751 50.5683C81.2781 50.0395 81.8257 49.2494 82.1522 48.4882ZM113.352 61.9453C113.349 62.7156 113.591 63.7949 114.511 63.911C115.455 64.0301 116.11 63.0918 116.371 62.3108C116.806 61.0063 116.786 59.217 116.216 57.8057C116.204 57.7807 116.193 57.7556 116.182 57.7302C116.021 57.9473 115.809 58.1314 115.553 58.2623C114.249 58.9289 113.358 60.49 113.352 61.9453ZM77.866 70.931C76.2283 72.2259 74.712 73.6734 73.355 75.2717C72.7207 76.0189 72.0745 76.7307 71.4835 77.5171C71.3077 77.7512 70.9293 78.2792 70.6664 78.7466C71.2327 78.6585 72.2404 78.147 72.6573 77.9142C73.8065 77.2725 74.9234 76.4422 75.869 75.5257C76.8087 74.6148 78.0096 73.1702 78.1501 71.8145C78.1804 71.5222 78.1515 71.2506 78.0773 70.9982C78.0643 70.9542 78.0331 70.9223 77.9895 70.9085C77.9458 70.8946 77.9019 70.9026 77.866 70.931ZM93.3102 13.282C86.5453 13.282 81.067 18.7604 81.067 25.5253C81.067 32.2902 86.5453 37.7685 93.3102 37.7685C109.416 37.7685 109.416 13.282 93.3102 13.282Z" fill="#0D1926"/>
<mask id="path-2-outside-1_66_17" maskUnits="userSpaceOnUse" x="5.84399" y="1.53955" width="145" height="48" fill="black">
<rect fill="white" x="5.84399" y="1.53955" width="145" height="48"/>
<path fill-rule="evenodd" clip-rule="evenodd" d="M17.5972 13.0973L29.951 29.5507V13.3818C29.951 12.7665 30.0211 12.1411 30.2125 11.5543C30.3893 11.0125 30.6656 10.5203 31.0642 10.1105C31.4412 9.72289 31.8854 9.43077 32.3907 9.23791C32.9115 9.03911 33.4644 8.95734 34.0202 8.95734C34.5852 8.95734 35.1499 9.03673 35.6814 9.23321C36.1937 9.42259 36.6471 9.71098 37.0307 10.0998C37.4339 10.5087 37.713 11.0026 37.8916 11.5464C38.085 12.1353 38.1555 12.7639 38.1555 13.3818V37.927C38.1555 39.2269 37.8887 40.5825 36.9689 41.5586C36.0551 42.5284 34.7753 42.8384 33.483 42.8384C33.1388 42.8384 32.7947 42.8167 32.4538 42.7687C31.8076 42.6777 31.1935 42.4894 30.6168 42.1821C30.3289 42.0288 30.0553 41.8496 29.7985 41.6486C29.544 41.4494 29.3022 41.2348 29.0734 41.0066C28.4033 40.3385 27.8238 39.5528 27.2394 38.8091C27.2268 38.7932 27.2149 38.7768 27.2036 38.7599L15.1974 22.5746V38.4139C15.1974 39.034 15.1202 39.6607 14.9155 40.2482C14.535 41.3402 13.7287 42.1496 12.649 42.5566C12.1271 42.7533 11.5772 42.8384 11.0207 42.8384C10.4541 42.8384 9.89109 42.7552 9.35958 42.5547C8.28553 42.1494 7.48934 41.3154 7.11816 40.2309C6.91882 39.6484 6.84399 39.0276 6.84399 38.4139V14.3412C6.84399 13.8439 6.87367 13.3425 6.95298 12.8512C7.19057 11.3794 7.87216 10.4086 9.16665 9.66734C9.16842 9.66629 9.16994 9.66546 9.17175 9.66448L9.18749 9.65591C10.3189 9.02356 11.618 8.82639 12.8939 9.0385C13.778 9.18548 14.6117 9.58983 15.2776 10.1894C15.487 10.3779 15.684 10.5801 15.8702 10.7915C16.4976 11.5037 17.0415 12.3172 17.5924 13.0903C17.5931 13.0913 17.5938 13.0922 17.5946 13.0932L17.5972 13.0973ZM16.314 14.0623C16.3034 14.0492 16.2932 14.0358 16.2834 14.0222C15.765 13.2946 15.253 12.5247 14.6627 11.8546C14.1003 11.2161 13.4884 10.7663 12.6339 10.6242C11.7206 10.4724 10.7866 10.6059 9.97439 11.0585C9.09703 11.5756 8.70295 12.0895 8.53911 13.1045C8.47358 13.5105 8.45368 13.9304 8.45368 14.3412V38.4139C8.45368 38.8477 8.49912 39.301 8.64024 39.7133C8.85601 40.3438 9.3014 40.8149 9.92633 41.0507C10.2737 41.1818 10.651 41.2287 11.0207 41.2287C11.381 41.2287 11.7439 41.1802 12.0824 41.0526C12.3876 40.9376 12.6582 40.7661 12.8928 40.5392C13.1292 40.3107 13.2908 40.0286 13.3985 39.7195C13.5424 39.3065 13.5877 38.8491 13.5877 38.4139V20.1414C13.5877 20.1285 13.5884 20.1158 13.5902 20.1034C13.6016 19.8632 13.7195 19.6404 13.9141 19.4962C14.2704 19.232 14.7735 19.3067 15.0377 19.6629L28.4946 37.8039L28.5007 37.8114C28.5018 37.8129 28.5029 37.8139 28.5036 37.8152C28.6954 38.0592 28.8867 38.304 29.0806 38.5462C29.6081 39.2051 30.1177 39.8591 30.7874 40.3835C30.9708 40.5271 31.1662 40.6557 31.3719 40.7653C31.7772 40.9812 32.2215 41.1128 32.6753 41.1768C32.9423 41.2143 33.2133 41.2287 33.4828 41.2287C34.2981 41.2287 35.2132 41.0783 35.7985 40.4571C36.4112 39.8068 36.5457 38.7817 36.5457 37.927V13.3818C36.5457 12.9372 36.5023 12.4693 36.363 12.045C36.263 11.7407 36.1118 11.4565 35.8855 11.2271C35.6698 11.0084 35.4143 10.849 35.1262 10.7426C34.7751 10.6128 34.3927 10.567 34.02 10.567C33.6628 10.567 33.2986 10.6131 32.9633 10.7411C32.6786 10.8498 32.4284 11.0123 32.2158 11.2309C31.9909 11.4621 31.8406 11.747 31.7411 12.0519C31.6034 12.4743 31.5605 12.9395 31.5605 13.3818V31.9597C31.5605 31.9741 31.5594 31.9883 31.5572 32.0021C31.5447 32.2389 31.4285 32.4585 31.2372 32.6019C30.8826 32.8678 30.3795 32.7959 30.1134 32.4415L16.314 14.0623ZM129.446 12.7243L141.799 29.1773V13.0084C141.799 12.3931 141.869 11.7678 142.061 11.1809C142.237 10.6391 142.514 10.147 142.912 9.73721C143.289 9.34954 143.734 9.05742 144.239 8.86453C144.76 8.66573 145.313 8.58395 145.868 8.58395C146.433 8.58395 146.998 8.66338 147.53 8.85986C148.042 9.04925 148.495 9.33763 148.879 9.72647C149.282 10.1353 149.561 10.6292 149.74 11.173C149.933 11.762 150.004 12.3906 150.004 13.0084V37.5536C150.004 38.8536 149.737 40.2092 148.817 41.1853C147.903 42.1551 146.623 42.4651 145.331 42.4651C144.987 42.4651 144.643 42.4433 144.302 42.3953C143.985 42.3506 143.671 42.282 143.366 42.1855C143.36 42.1841 143.354 42.1826 143.348 42.1806C143.043 42.0853 142.747 41.9592 142.465 41.8088C142.177 41.6555 141.903 41.4762 141.647 41.2753C141.392 41.0761 141.15 40.8615 140.922 40.6333C140.688 40.4007 140.469 40.1548 140.261 39.8988C140.261 39.8977 140.26 39.897 140.259 39.8963L140.252 39.8872C140.059 39.6527 139.867 39.4141 139.676 39.175C139.479 38.9293 139.282 38.6835 139.087 38.436C139.075 38.42 139.063 38.4036 139.052 38.3868L127.045 22.2012V38.0406C127.045 38.6607 126.968 39.2874 126.764 39.8749C126.572 40.4237 126.276 40.9147 125.859 41.3204C125.857 41.3215 125.856 41.3225 125.855 41.324L125.854 41.3247C125.462 41.7015 125.008 41.9909 124.497 42.1832C123.975 42.3799 123.426 42.465 122.869 42.465C122.302 42.465 121.739 42.3818 121.208 42.1813C120.694 41.9873 120.242 41.6924 119.854 41.3041L119.853 41.3038C119.444 40.8947 119.154 40.4041 118.966 39.8575C118.767 39.2751 118.692 38.6542 118.692 38.0406V13.9679C118.692 13.4706 118.722 12.9691 118.801 12.4778C118.87 12.0555 118.977 11.6304 119.15 11.238C119.16 11.2138 119.172 11.1901 119.185 11.167C119.375 10.784 119.622 10.4375 119.921 10.1313C120.243 9.80021 120.614 9.52333 121.015 9.29399C121.022 9.28969 121.03 9.2856 121.038 9.28158C121.442 9.05561 121.872 8.88048 122.321 8.76274C122.775 8.64333 123.242 8.58395 123.712 8.58395C124.057 8.58395 124.402 8.6086 124.742 8.66512C125.059 8.71787 125.373 8.79961 125.672 8.91913C125.688 8.92542 125.703 8.93226 125.718 8.93957C125.969 9.04411 126.214 9.16522 126.445 9.30753C126.687 9.45621 126.915 9.62609 127.126 9.81602C127.335 10.0045 127.532 10.2067 127.718 10.4181C127.926 10.6538 128.121 10.9013 128.305 11.1556C128.306 11.157 128.307 11.1583 128.308 11.1598L128.316 11.171L128.342 11.2064C128.711 11.708 129.079 12.2098 129.441 12.717C129.441 12.7181 129.442 12.7192 129.443 12.7204L129.446 12.7243ZM128.162 13.6887C128.151 13.6757 128.141 13.6624 128.132 13.6488C127.775 13.148 127.41 12.6527 127.046 12.1574L127.023 12.1254C127.016 12.1169 127.009 12.1082 127.003 12.0993C126.848 11.8861 126.685 11.6789 126.511 11.4813C126.366 11.3166 126.213 11.1581 126.05 11.0113C125.911 10.8866 125.761 10.776 125.602 10.6785C125.443 10.5806 125.277 10.4948 125.105 10.4224C125.094 10.4187 125.084 10.4149 125.074 10.4109C124.884 10.335 124.684 10.2843 124.482 10.2508C124.229 10.2087 123.969 10.1936 123.712 10.1936C123.38 10.1936 123.05 10.2329 122.729 10.3172C122.412 10.4005 122.109 10.5256 121.822 10.6851L121.817 10.6884C121.816 10.689 121.815 10.6896 121.814 10.6902C121.545 10.8444 121.289 11.029 121.072 11.2518C120.893 11.4358 120.742 11.6425 120.627 11.8723L120.624 11.8808C120.623 11.8826 120.622 11.8842 120.622 11.8861C120.505 12.1518 120.434 12.4452 120.387 12.7311C120.322 13.1371 120.302 13.5571 120.302 13.9679V38.0406C120.302 38.4743 120.347 38.9277 120.489 39.3399C120.595 39.6522 120.758 39.9338 120.991 40.169L120.993 40.1712C121.217 40.397 121.477 40.5653 121.775 40.6775C122.122 40.8086 122.5 40.8555 122.869 40.8555C123.23 40.8555 123.592 40.807 123.931 40.6794C124.236 40.5644 124.507 40.3929 124.741 40.166C124.978 39.9374 125.139 39.6554 125.247 39.3463C125.391 38.9333 125.436 38.4759 125.436 38.0407V19.768C125.436 19.7551 125.437 19.7425 125.439 19.73C125.45 19.4899 125.568 19.2671 125.763 19.1228C126.119 18.8586 126.622 18.9334 126.886 19.2895L140.343 37.4307L140.349 37.4384C140.351 37.4394 140.351 37.4405 140.352 37.442C140.544 37.686 140.735 37.9307 140.929 38.1729C141.116 38.4067 141.305 38.639 141.494 38.8687L141.505 38.8816C141.506 38.8834 141.508 38.8845 141.509 38.8863C141.681 39.0983 141.862 39.3021 142.055 39.4947C142.239 39.6775 142.432 39.8505 142.636 40.0102C142.82 40.1538 143.015 40.2825 143.221 40.3921C143.414 40.4953 143.617 40.5803 143.827 40.6457C143.834 40.6479 143.841 40.6503 143.848 40.653C144.068 40.7228 144.295 40.7712 144.524 40.8035C144.791 40.8411 145.062 40.8555 145.332 40.8555C146.147 40.8555 147.062 40.705 147.647 40.0838C148.26 39.4335 148.394 38.4084 148.394 37.5537V13.0084C148.394 12.5639 148.351 12.096 148.212 11.6717C148.112 11.3673 147.961 11.0831 147.734 10.8537C147.519 10.635 147.263 10.4757 146.975 10.3692C146.624 10.2394 146.241 10.1936 145.869 10.1936C145.511 10.1936 145.147 10.2397 144.812 10.3677C144.527 10.4764 144.277 10.6389 144.065 10.8575C143.84 11.0887 143.689 11.3736 143.59 11.6785C143.452 12.1009 143.409 12.5661 143.409 13.0084V31.5863C143.409 31.6007 143.408 31.615 143.406 31.6288C143.393 31.8656 143.277 32.0851 143.086 32.2285C142.731 32.4945 142.228 32.4225 141.962 32.0681L128.162 13.6887ZM40.9448 14.3519C40.746 13.8311 40.6642 13.2782 40.6642 12.7223C40.6642 12.1573 40.7436 11.5927 40.9401 11.0612C41.1295 10.5489 41.4178 10.0954 41.8067 9.71192C42.2155 9.30865 42.7095 9.02956 43.2532 8.85099C43.8422 8.65763 44.4708 8.58703 45.0887 8.58703H63.4963C64.1142 8.58703 64.7428 8.65763 65.3317 8.85099C65.8755 9.02956 66.3695 9.30865 66.7783 9.71192C67.1672 10.0954 67.4555 10.5489 67.6449 11.0612C67.8414 11.5927 67.9209 12.1573 67.9209 12.7223C67.9209 13.2782 67.839 13.8311 67.6402 14.3519C67.4473 14.8572 67.1553 15.3013 66.7676 15.6784C66.3578 16.077 65.8656 16.3533 65.3238 16.53C64.737 16.7215 64.1116 16.7916 63.4963 16.7916H45.0887C44.4733 16.7916 43.848 16.7215 43.2612 16.53C42.7194 16.3533 42.2272 16.077 41.8174 15.6784C41.4298 15.3013 41.1377 14.8572 40.9448 14.3519ZM42.2739 12.7223C42.2739 13.0796 42.32 13.4438 42.4479 13.779C42.5566 14.0638 42.7191 14.314 42.9377 14.5266C43.1689 14.7515 43.4539 14.9018 43.7588 15.0013C44.1811 15.1391 44.6464 15.1819 45.0887 15.1819H63.4963C63.9386 15.1819 64.4039 15.1391 64.8262 15.0013C65.1311 14.9018 65.416 14.7515 65.6473 14.5266C65.8659 14.314 66.0284 14.0638 66.1371 13.7791C66.2651 13.4438 66.3111 13.0796 66.3111 12.7223C66.3111 12.3496 66.2654 11.9673 66.1356 11.6162C66.0291 11.3281 65.8698 11.0726 65.6511 10.8569C65.4217 10.6306 65.1374 10.4793 64.8331 10.3794C64.4088 10.2401 63.9409 10.1967 63.4963 10.1967H45.0887C44.6441 10.1967 44.1762 10.2401 43.7519 10.3794C43.4476 10.4793 43.1633 10.6306 42.9339 10.8569C42.7152 11.0726 42.5559 11.3281 42.4494 11.6162C42.3196 11.9673 42.2739 12.3496 42.2739 12.7223ZM40.9448 39.9578C40.746 39.437 40.6642 38.8841 40.6642 38.3282C40.6642 37.7632 40.7436 37.1986 40.9401 36.6671C41.1295 36.1547 41.4178 35.7013 41.8067 35.3178C42.2155 34.9146 42.7095 34.6354 43.2532 34.4569C43.8422 34.2635 44.4708 34.1929 45.0887 34.1929H63.4963C64.1142 34.1929 64.7428 34.2635 65.3317 34.4569C65.8755 34.6354 66.3695 34.9146 66.7783 35.3178C67.1672 35.7013 67.4555 36.1547 67.6449 36.667C67.8414 37.1986 67.9209 37.7632 67.9209 38.3282C67.9209 38.8841 67.839 39.437 67.6402 39.9578C67.4473 40.4631 67.1553 40.9072 66.7676 41.2843C66.3578 41.6829 65.8656 41.9592 65.3238 42.136C64.737 42.3273 64.1116 42.3975 63.4963 42.3975H45.0887C44.4733 42.3975 43.848 42.3273 43.2612 42.136C42.7194 41.9592 42.2272 41.6829 41.8174 41.2843C41.4298 40.9072 41.1377 40.4631 40.9448 39.9578ZM42.2739 38.3282C42.2739 38.6855 42.32 39.0497 42.4479 39.385C42.5566 39.6697 42.7191 39.9199 42.9377 40.1325C43.1689 40.3573 43.4539 40.5077 43.7588 40.6071C44.1811 40.7449 44.6464 40.7878 45.0887 40.7878H63.4963C63.9386 40.7878 64.4039 40.7449 64.8262 40.6071C65.1311 40.5077 65.416 40.3573 65.6473 40.1325C65.8659 39.9198 66.0284 39.6697 66.1371 39.385C66.2651 39.0497 66.3111 38.6855 66.3111 38.3282C66.3111 37.9555 66.2654 37.5732 66.1356 37.2221C66.0291 36.934 65.8698 36.6785 65.6511 36.4628C65.4217 36.2365 65.1374 36.0853 64.8331 35.9854C64.4088 35.846 63.9409 35.8026 63.4963 35.8026H45.0887C44.6441 35.8026 44.1762 35.846 43.7519 35.9854C43.4476 36.0853 43.1633 36.2365 42.9339 36.4628C42.7152 36.6785 42.5559 36.934 42.4494 37.2221C42.3196 37.5732 42.2739 37.9555 42.2739 38.3282ZM40.9448 27.1548C40.566 26.1626 40.5724 24.8589 40.9401 23.8641C41.1295 23.3518 41.4179 22.8984 41.8067 22.5149C42.2155 22.1116 42.7095 21.8325 43.2533 21.6539C43.8422 21.4606 44.4708 21.39 45.0887 21.39H63.4963C64.1142 21.39 64.7428 21.4606 65.3317 21.6539C65.8755 21.8325 66.3695 22.1116 66.7783 22.5149C67.1672 22.8984 67.4555 23.3518 67.6449 23.8641C68.0126 24.8589 68.019 26.1626 67.6402 27.1548C67.4473 27.6602 67.1553 28.1042 66.7676 28.4813C66.3578 28.8799 65.8656 29.1563 65.3238 29.333C64.737 29.5244 64.1116 29.5946 63.4963 29.5946H45.0887C44.4733 29.5946 43.848 29.5244 43.2612 29.333C42.7194 29.1563 42.2272 28.8799 41.8174 28.4813C41.4298 28.1043 41.1377 27.6601 40.9448 27.1548ZM42.4479 26.582C42.5566 26.8667 42.7191 27.1169 42.9377 27.3295C43.1689 27.5544 43.4539 27.7048 43.7588 27.8042C44.1811 27.942 44.6464 27.9849 45.0887 27.9849H63.4963C63.9386 27.9849 64.4039 27.942 64.8262 27.8042C65.1311 27.7048 65.416 27.5544 65.6473 27.3295C65.8659 27.1169 66.0284 26.8667 66.1371 26.582C66.3758 25.9567 66.3672 25.0457 66.1356 24.4191C66.0291 24.1311 65.8698 23.8755 65.6511 23.6598C65.4217 23.4335 65.1375 23.2823 64.8331 23.1824C64.4088 23.0431 63.9409 22.9996 63.4964 22.9996H45.0887C44.6441 22.9996 44.1762 23.0431 43.7519 23.1824C43.4476 23.2823 43.1633 23.4335 42.9339 23.6598C42.7152 23.8755 42.5559 24.1311 42.4494 24.4191C42.2178 25.0458 42.2091 25.9566 42.4479 26.582ZM79.8764 42.1554C80.2207 42.4337 80.2762 42.9392 79.9985 43.2846C79.7207 43.6301 79.2133 43.6858 78.8682 43.4068C76.2007 41.2506 74.0391 38.5168 72.56 35.4207C71.0815 32.3254 70.3244 28.9552 70.3244 25.5253C70.3244 19.4085 72.7322 13.5965 77.0568 9.27196C81.3814 4.94742 87.1933 2.53955 93.3102 2.53955C99.427 2.53955 105.239 4.94742 109.563 9.27196C113.888 13.5965 116.296 19.4085 116.296 25.5253C116.296 31.0311 114.346 36.3053 110.761 40.4837C107.183 44.6549 102.238 47.4195 96.7986 48.2476C96.3591 48.3145 95.9489 48.011 95.8829 47.5716C95.8169 47.1325 96.1197 46.7234 96.5584 46.6566C101.616 45.8867 106.213 43.3167 109.541 39.4384C112.876 35.5517 114.686 30.6463 114.686 25.5253C114.686 19.8363 112.447 14.4322 108.425 10.4101C104.403 6.38802 98.9991 4.14924 93.3102 4.14924C87.6212 4.14924 82.217 6.38802 78.1949 10.4101C74.1728 14.4322 71.9341 19.8363 71.9341 25.5253C71.9341 28.7147 72.6334 31.8496 74.0085 34.7283C75.3841 37.608 77.3954 40.15 79.8764 42.1554ZM93.0066 46.9013C93.4496 46.9072 93.8048 47.2703 93.7995 47.7135C93.7943 48.1568 93.4304 48.5128 92.9868 48.5068C91.8044 48.491 90.624 48.3854 89.458 48.1885C88.2958 47.9923 87.1495 47.706 86.0315 47.3328C85.6107 47.1924 85.3838 46.7368 85.5245 46.3162C85.6653 45.8956 86.1204 45.6689 86.541 45.8093C87.5793 46.156 88.6441 46.4208 89.7235 46.603C90.8084 46.7862 91.9065 46.8865 93.0066 46.9013ZM81.7182 13.9334C84.8025 10.8491 88.9478 9.13287 93.3102 9.13287C97.6725 9.13287 101.818 10.8491 104.902 13.9334C107.986 17.0177 109.703 21.1629 109.703 25.5253C109.703 29.8877 107.986 34.0329 104.902 37.1173C101.818 40.2016 97.6725 41.9178 93.3102 41.9178C88.9478 41.9178 84.8025 40.2016 81.7182 37.1173C78.6339 34.0329 76.9177 29.8877 76.9177 25.5253C76.9177 21.1629 78.6339 17.0177 81.7182 13.9334ZM93.3102 10.7426C89.3756 10.7426 85.6382 12.2897 82.8563 15.0715C80.0745 17.8533 78.5274 21.5908 78.5274 25.5253C78.5274 29.4598 80.0745 33.1973 82.8563 35.9791C85.6382 38.761 89.3756 40.3081 93.3102 40.3081C97.2447 40.3081 100.982 38.761 103.764 35.9791C106.546 33.1973 108.093 29.4598 108.093 25.5253C108.093 21.5908 106.546 17.8533 103.764 15.0715C100.982 12.2897 97.2447 10.7426 93.3102 10.7426Z"/>
</mask>
<path fill-rule="evenodd" clip-rule="evenodd" d="M17.5972 13.0973L29.951 29.5507V13.3818C29.951 12.7665 30.0211 12.1411 30.2125 11.5543C30.3893 11.0125 30.6656 10.5203 31.0642 10.1105C31.4412 9.72289 31.8854 9.43077 32.3907 9.23791C32.9115 9.03911 33.4644 8.95734 34.0202 8.95734C34.5852 8.95734 35.1499 9.03673 35.6814 9.23321C36.1937 9.42259 36.6471 9.71098 37.0307 10.0998C37.4339 10.5087 37.713 11.0026 37.8916 11.5464C38.085 12.1353 38.1555 12.7639 38.1555 13.3818V37.927C38.1555 39.2269 37.8887 40.5825 36.9689 41.5586C36.0551 42.5284 34.7753 42.8384 33.483 42.8384C33.1388 42.8384 32.7947 42.8167 32.4538 42.7687C31.8076 42.6777 31.1935 42.4894 30.6168 42.1821C30.3289 42.0288 30.0553 41.8496 29.7985 41.6486C29.544 41.4494 29.3022 41.2348 29.0734 41.0066C28.4033 40.3385 27.8238 39.5528 27.2394 38.8091C27.2268 38.7932 27.2149 38.7768 27.2036 38.7599L15.1974 22.5746V38.4139C15.1974 39.034 15.1202 39.6607 14.9155 40.2482C14.535 41.3402 13.7287 42.1496 12.649 42.5566C12.1271 42.7533 11.5772 42.8384 11.0207 42.8384C10.4541 42.8384 9.89109 42.7552 9.35958 42.5547C8.28553 42.1494 7.48934 41.3154 7.11816 40.2309C6.91882 39.6484 6.84399 39.0276 6.84399 38.4139V14.3412C6.84399 13.8439 6.87367 13.3425 6.95298 12.8512C7.19057 11.3794 7.87216 10.4086 9.16665 9.66734C9.16842 9.66629 9.16994 9.66546 9.17175 9.66448L9.18749 9.65591C10.3189 9.02356 11.618 8.82639 12.8939 9.0385C13.778 9.18548 14.6117 9.58983 15.2776 10.1894C15.487 10.3779 15.684 10.5801 15.8702 10.7915C16.4976 11.5037 17.0415 12.3172 17.5924 13.0903C17.5931 13.0913 17.5938 13.0922 17.5946 13.0932L17.5972 13.0973ZM16.314 14.0623C16.3034 14.0492 16.2932 14.0358 16.2834 14.0222C15.765 13.2946 15.253 12.5247 14.6627 11.8546C14.1003 11.2161 13.4884 10.7663 12.6339 10.6242C11.7206 10.4724 10.7866 10.6059 9.97439 11.0585C9.09703 11.5756 8.70295 12.0895 8.53911 13.1045C8.47358 13.5105 8.45368 13.9304 8.45368 14.3412V38.4139C8.45368 38.8477 8.49912 39.301 8.64024 39.7133C8.85601 40.3438 9.3014 40.8149 9.92633 41.0507C10.2737 41.1818 10.651 41.2287 11.0207 41.2287C11.381 41.2287 11.7439 41.1802 12.0824 41.0526C12.3876 40.9376 12.6582 40.7661 12.8928 40.5392C13.1292 40.3107 13.2908 40.0286 13.3985 39.7195C13.5424 39.3065 13.5877 38.8491 13.5877 38.4139V20.1414C13.5877 20.1285 13.5884 20.1158 13.5902 20.1034C13.6016 19.8632 13.7195 19.6404 13.9141 19.4962C14.2704 19.232 14.7735 19.3067 15.0377 19.6629L28.4946 37.8039L28.5007 37.8114C28.5018 37.8129 28.5029 37.8139 28.5036 37.8152C28.6954 38.0592 28.8867 38.304 29.0806 38.5462C29.6081 39.2051 30.1177 39.8591 30.7874 40.3835C30.9708 40.5271 31.1662 40.6557 31.3719 40.7653C31.7772 40.9812 32.2215 41.1128 32.6753 41.1768C32.9423 41.2143 33.2133 41.2287 33.4828 41.2287C34.2981 41.2287 35.2132 41.0783 35.7985 40.4571C36.4112 39.8068 36.5457 38.7817 36.5457 37.927V13.3818C36.5457 12.9372 36.5023 12.4693 36.363 12.045C36.263 11.7407 36.1118 11.4565 35.8855 11.2271C35.6698 11.0084 35.4143 10.849 35.1262 10.7426C34.7751 10.6128 34.3927 10.567 34.02 10.567C33.6628 10.567 33.2986 10.6131 32.9633 10.7411C32.6786 10.8498 32.4284 11.0123 32.2158 11.2309C31.9909 11.4621 31.8406 11.747 31.7411 12.0519C31.6034 12.4743 31.5605 12.9395 31.5605 13.3818V31.9597C31.5605 31.9741 31.5594 31.9883 31.5572 32.0021C31.5447 32.2389 31.4285 32.4585 31.2372 32.6019C30.8826 32.8678 30.3795 32.7959 30.1134 32.4415L16.314 14.0623ZM129.446 12.7243L141.799 29.1773V13.0084C141.799 12.3931 141.869 11.7678 142.061 11.1809C142.237 10.6391 142.514 10.147 142.912 9.73721C143.289 9.34954 143.734 9.05742 144.239 8.86453C144.76 8.66573 145.313 8.58395 145.868 8.58395C146.433 8.58395 146.998 8.66338 147.53 8.85986C148.042 9.04925 148.495 9.33763 148.879 9.72647C149.282 10.1353 149.561 10.6292 149.74 11.173C149.933 11.762 150.004 12.3906 150.004 13.0084V37.5536C150.004 38.8536 149.737 40.2092 148.817 41.1853C147.903 42.1551 146.623 42.4651 145.331 42.4651C144.987 42.4651 144.643 42.4433 144.302 42.3953C143.985 42.3506 143.671 42.282 143.366 42.1855C143.36 42.1841 143.354 42.1826 143.348 42.1806C143.043 42.0853 142.747 41.9592 142.465 41.8088C142.177 41.6555 141.903 41.4762 141.647 41.2753C141.392 41.0761 141.15 40.8615 140.922 40.6333C140.688 40.4007 140.469 40.1548 140.261 39.8988C140.261 39.8977 140.26 39.897 140.259 39.8963L140.252 39.8872C140.059 39.6527 139.867 39.4141 139.676 39.175C139.479 38.9293 139.282 38.6835 139.087 38.436C139.075 38.42 139.063 38.4036 139.052 38.3868L127.045 22.2012V38.0406C127.045 38.6607 126.968 39.2874 126.764 39.8749C126.572 40.4237 126.276 40.9147 125.859 41.3204C125.857 41.3215 125.856 41.3225 125.855 41.324L125.854 41.3247C125.462 41.7015 125.008 41.9909 124.497 42.1832C123.975 42.3799 123.426 42.465 122.869 42.465C122.302 42.465 121.739 42.3818 121.208 42.1813C120.694 41.9873 120.242 41.6924 119.854 41.3041L119.853 41.3038C119.444 40.8947 119.154 40.4041 118.966 39.8575C118.767 39.2751 118.692 38.6542 118.692 38.0406V13.9679C118.692 13.4706 118.722 12.9691 118.801 12.4778C118.87 12.0555 118.977 11.6304 119.15 11.238C119.16 11.2138 119.172 11.1901 119.185 11.167C119.375 10.784 119.622 10.4375 119.921 10.1313C120.243 9.80021 120.614 9.52333 121.015 9.29399C121.022 9.28969 121.03 9.2856 121.038 9.28158C121.442 9.05561 121.872 8.88048 122.321 8.76274C122.775 8.64333 123.242 8.58395 123.712 8.58395C124.057 8.58395 124.402 8.6086 124.742 8.66512C125.059 8.71787 125.373 8.79961 125.672 8.91913C125.688 8.92542 125.703 8.93226 125.718 8.93957C125.969 9.04411 126.214 9.16522 126.445 9.30753C126.687 9.45621 126.915 9.62609 127.126 9.81602C127.335 10.0045 127.532 10.2067 127.718 10.4181C127.926 10.6538 128.121 10.9013 128.305 11.1556C128.306 11.157 128.307 11.1583 128.308 11.1598L128.316 11.171L128.342 11.2064C128.711 11.708 129.079 12.2098 129.441 12.717C129.441 12.7181 129.442 12.7192 129.443 12.7204L129.446 12.7243ZM128.162 13.6887C128.151 13.6757 128.141 13.6624 128.132 13.6488C127.775 13.148 127.41 12.6527 127.046 12.1574L127.023 12.1254C127.016 12.1169 127.009 12.1082 127.003 12.0993C126.848 11.8861 126.685 11.6789 126.511 11.4813C126.366 11.3166 126.213 11.1581 126.05 11.0113C125.911 10.8866 125.761 10.776 125.602 10.6785C125.443 10.5806 125.277 10.4948 125.105 10.4224C125.094 10.4187 125.084 10.4149 125.074 10.4109C124.884 10.335 124.684 10.2843 124.482 10.2508C124.229 10.2087 123.969 10.1936 123.712 10.1936C123.38 10.1936 123.05 10.2329 122.729 10.3172C122.412 10.4005 122.109 10.5256 121.822 10.6851L121.817 10.6884C121.816 10.689 121.815 10.6896 121.814 10.6902C121.545 10.8444 121.289 11.029 121.072 11.2518C120.893 11.4358 120.742 11.6425 120.627 11.8723L120.624 11.8808C120.623 11.8826 120.622 11.8842 120.622 11.8861C120.505 12.1518 120.434 12.4452 120.387 12.7311C120.322 13.1371 120.302 13.5571 120.302 13.9679V38.0406C120.302 38.4743 120.347 38.9277 120.489 39.3399C120.595 39.6522 120.758 39.9338 120.991 40.169L120.993 40.1712C121.217 40.397 121.477 40.5653 121.775 40.6775C122.122 40.8086 122.5 40.8555 122.869 40.8555C123.23 40.8555 123.592 40.807 123.931 40.6794C124.236 40.5644 124.507 40.3929 124.741 40.166C124.978 39.9374 125.139 39.6554 125.247 39.3463C125.391 38.9333 125.436 38.4759 125.436 38.0407V19.768C125.436 19.7551 125.437 19.7425 125.439 19.73C125.45 19.4899 125.568 19.2671 125.763 19.1228C126.119 18.8586 126.622 18.9334 126.886 19.2895L140.343 37.4307L140.349 37.4384C140.351 37.4394 140.351 37.4405 140.352 37.442C140.544 37.686 140.735 37.9307 140.929 38.1729C141.116 38.4067 141.305 38.639 141.494 38.8687L141.505 38.8816C141.506 38.8834 141.508 38.8845 141.509 38.8863C141.681 39.0983 141.862 39.3021 142.055 39.4947C142.239 39.6775 142.432 39.8505 142.636 40.0102C142.82 40.1538 143.015 40.2825 143.221 40.3921C143.414 40.4953 143.617 40.5803 143.827 40.6457C143.834 40.6479 143.841 40.6503 143.848 40.653C144.068 40.7228 144.295 40.7712 144.524 40.8035C144.791 40.8411 145.062 40.8555 145.332 40.8555C146.147 40.8555 147.062 40.705 147.647 40.0838C148.26 39.4335 148.394 38.4084 148.394 37.5537V13.0084C148.394 12.5639 148.351 12.096 148.212 11.6717C148.112 11.3673 147.961 11.0831 147.734 10.8537C147.519 10.635 147.263 10.4757 146.975 10.3692C146.624 10.2394 146.241 10.1936 145.869 10.1936C145.511 10.1936 145.147 10.2397 144.812 10.3677C144.527 10.4764 144.277 10.6389 144.065 10.8575C143.84 11.0887 143.689 11.3736 143.59 11.6785C143.452 12.1009 143.409 12.5661 143.409 13.0084V31.5863C143.409 31.6007 143.408 31.615 143.406 31.6288C143.393 31.8656 143.277 32.0851 143.086 32.2285C142.731 32.4945 142.228 32.4225 141.962 32.0681L128.162 13.6887ZM40.9448 14.3519C40.746 13.8311 40.6642 13.2782 40.6642 12.7223C40.6642 12.1573 40.7436 11.5927 40.9401 11.0612C41.1295 10.5489 41.4178 10.0954 41.8067 9.71192C42.2155 9.30865 42.7095 9.02956 43.2532 8.85099C43.8422 8.65763 44.4708 8.58703 45.0887 8.58703H63.4963C64.1142 8.58703 64.7428 8.65763 65.3317 8.85099C65.8755 9.02956 66.3695 9.30865 66.7783 9.71192C67.1672 10.0954 67.4555 10.5489 67.6449 11.0612C67.8414 11.5927 67.9209 12.1573 67.9209 12.7223C67.9209 13.2782 67.839 13.8311 67.6402 14.3519C67.4473 14.8572 67.1553 15.3013 66.7676 15.6784C66.3578 16.077 65.8656 16.3533 65.3238 16.53C64.737 16.7215 64.1116 16.7916 63.4963 16.7916H45.0887C44.4733 16.7916 43.848 16.7215 43.2612 16.53C42.7194 16.3533 42.2272 16.077 41.8174 15.6784C41.4298 15.3013 41.1377 14.8572 40.9448 14.3519ZM42.2739 12.7223C42.2739 13.0796 42.32 13.4438 42.4479 13.779C42.5566 14.0638 42.7191 14.314 42.9377 14.5266C43.1689 14.7515 43.4539 14.9018 43.7588 15.0013C44.1811 15.1391 44.6464 15.1819 45.0887 15.1819H63.4963C63.9386 15.1819 64.4039 15.1391 64.8262 15.0013C65.1311 14.9018 65.416 14.7515 65.6473 14.5266C65.8659 14.314 66.0284 14.0638 66.1371 13.7791C66.2651 13.4438 66.3111 13.0796 66.3111 12.7223C66.3111 12.3496 66.2654 11.9673 66.1356 11.6162C66.0291 11.3281 65.8698 11.0726 65.6511 10.8569C65.4217 10.6306 65.1374 10.4793 64.8331 10.3794C64.4088 10.2401 63.9409 10.1967 63.4963 10.1967H45.0887C44.6441 10.1967 44.1762 10.2401 43.7519 10.3794C43.4476 10.4793 43.1633 10.6306 42.9339 10.8569C42.7152 11.0726 42.5559 11.3281 42.4494 11.6162C42.3196 11.9673 42.2739 12.3496 42.2739 12.7223ZM40.9448 39.9578C40.746 39.437 40.6642 38.8841 40.6642 38.3282C40.6642 37.7632 40.7436 37.1986 40.9401 36.6671C41.1295 36.1547 41.4178 35.7013 41.8067 35.3178C42.2155 34.9146 42.7095 34.6354 43.2532 34.4569C43.8422 34.2635 44.4708 34.1929 45.0887 34.1929H63.4963C64.1142 34.1929 64.7428 34.2635 65.3317 34.4569C65.8755 34.6354 66.3695 34.9146 66.7783 35.3178C67.1672 35.7013 67.4555 36.1547 67.6449 36.667C67.8414 37.1986 67.9209 37.7632 67.9209 38.3282C67.9209 38.8841 67.839 39.437 67.6402 39.9578C67.4473 40.4631 67.1553 40.9072 66.7676 41.2843C66.3578 41.6829 65.8656 41.9592 65.3238 42.136C64.737 42.3273 64.1116 42.3975 63.4963 42.3975H45.0887C44.4733 42.3975 43.848 42.3273 43.2612 42.136C42.7194 41.9592 42.2272 41.6829 41.8174 41.2843C41.4298 40.9072 41.1377 40.4631 40.9448 39.9578ZM42.2739 38.3282C42.2739 38.6855 42.32 39.0497 42.4479 39.385C42.5566 39.6697 42.7191 39.9199 42.9377 40.1325C43.1689 40.3573 43.4539 40.5077 43.7588 40.6071C44.1811 40.7449 44.6464 40.7878 45.0887 40.7878H63.4963C63.9386 40.7878 64.4039 40.7449 64.8262 40.6071C65.1311 40.5077 65.416 40.3573 65.6473 40.1325C65.8659 39.9198 66.0284 39.6697 66.1371 39.385C66.2651 39.0497 66.3111 38.6855 66.3111 38.3282C66.3111 37.9555 66.2654 37.5732 66.1356 37.2221C66.0291 36.934 65.8698 36.6785 65.6511 36.4628C65.4217 36.2365 65.1374 36.0853 64.8331 35.9854C64.4088 35.846 63.9409 35.8026 63.4963 35.8026H45.0887C44.6441 35.8026 44.1762 35.846 43.7519 35.9854C43.4476 36.0853 43.1633 36.2365 42.9339 36.4628C42.7152 36.6785 42.5559 36.934 42.4494 37.2221C42.3196 37.5732 42.2739 37.9555 42.2739 38.3282ZM40.9448 27.1548C40.566 26.1626 40.5724 24.8589 40.9401 23.8641C41.1295 23.3518 41.4179 22.8984 41.8067 22.5149C42.2155 22.1116 42.7095 21.8325 43.2533 21.6539C43.8422 21.4606 44.4708 21.39 45.0887 21.39H63.4963C64.1142 21.39 64.7428 21.4606 65.3317 21.6539C65.8755 21.8325 66.3695 22.1116 66.7783 22.5149C67.1672 22.8984 67.4555 23.3518 67.6449 23.8641C68.0126 24.8589 68.019 26.1626 67.6402 27.1548C67.4473 27.6602 67.1553 28.1042 66.7676 28.4813C66.3578 28.8799 65.8656 29.1563 65.3238 29.333C64.737 29.5244 64.1116 29.5946 63.4963 29.5946H45.0887C44.4733 29.5946 43.848 29.5244 43.2612 29.333C42.7194 29.1563 42.2272 28.8799 41.8174 28.4813C41.4298 28.1043 41.1377 27.6601 40.9448 27.1548ZM42.4479 26.582C42.5566 26.8667 42.7191 27.1169 42.9377 27.3295C43.1689 27.5544 43.4539 27.7048 43.7588 27.8042C44.1811 27.942 44.6464 27.9849 45.0887 27.9849H63.4963C63.9386 27.9849 64.4039 27.942 64.8262 27.8042C65.1311 27.7048 65.416 27.5544 65.6473 27.3295C65.8659 27.1169 66.0284 26.8667 66.1371 26.582C66.3758 25.9567 66.3672 25.0457 66.1356 24.4191C66.0291 24.1311 65.8698 23.8755 65.6511 23.6598C65.4217 23.4335 65.1375 23.2823 64.8331 23.1824C64.4088 23.0431 63.9409 22.9996 63.4964 22.9996H45.0887C44.6441 22.9996 44.1762 23.0431 43.7519 23.1824C43.4476 23.2823 43.1633 23.4335 42.9339 23.6598C42.7152 23.8755 42.5559 24.1311 42.4494 24.4191C42.2178 25.0458 42.2091 25.9566 42.4479 26.582ZM79.8764 42.1554C80.2207 42.4337 80.2762 42.9392 79.9985 43.2846C79.7207 43.6301 79.2133 43.6858 78.8682 43.4068C76.2007 41.2506 74.0391 38.5168 72.56 35.4207C71.0815 32.3254 70.3244 28.9552 70.3244 25.5253C70.3244 19.4085 72.7322 13.5965 77.0568 9.27196C81.3814 4.94742 87.1933 2.53955 93.3102 2.53955C99.427 2.53955 105.239 4.94742 109.563 9.27196C113.888 13.5965 116.296 19.4085 116.296 25.5253C116.296 31.0311 114.346 36.3053 110.761 40.4837C107.183 44.6549 102.238 47.4195 96.7986 48.2476C96.3591 48.3145 95.9489 48.011 95.8829 47.5716C95.8169 47.1325 96.1197 46.7234 96.5584 46.6566C101.616 45.8867 106.213 43.3167 109.541 39.4384C112.876 35.5517 114.686 30.6463 114.686 25.5253C114.686 19.8363 112.447 14.4322 108.425 10.4101C104.403 6.38802 98.9991 4.14924 93.3102 4.14924C87.6212 4.14924 82.217 6.38802 78.1949 10.4101C74.1728 14.4322 71.9341 19.8363 71.9341 25.5253C71.9341 28.7147 72.6334 31.8496 74.0085 34.7283C75.3841 37.608 77.3954 40.15 79.8764 42.1554ZM93.0066 46.9013C93.4496 46.9072 93.8048 47.2703 93.7995 47.7135C93.7943 48.1568 93.4304 48.5128 92.9868 48.5068C91.8044 48.491 90.624 48.3854 89.458 48.1885C88.2958 47.9923 87.1495 47.706 86.0315 47.3328C85.6107 47.1924 85.3838 46.7368 85.5245 46.3162C85.6653 45.8956 86.1204 45.6689 86.541 45.8093C87.5793 46.156 88.6441 46.4208 89.7235 46.603C90.8084 46.7862 91.9065 46.8865 93.0066 46.9013ZM81.7182 13.9334C84.8025 10.8491 88.9478 9.13287 93.3102 9.13287C97.6725 9.13287 101.818 10.8491 104.902 13.9334C107.986 17.0177 109.703 21.1629 109.703 25.5253C109.703 29.8877 107.986 34.0329 104.902 37.1173C101.818 40.2016 97.6725 41.9178 93.3102 41.9178C88.9478 41.9178 84.8025 40.2016 81.7182 37.1173C78.6339 34.0329 76.9177 29.8877 76.9177 25.5253C76.9177 21.1629 78.6339 17.0177 81.7182 13.9334ZM93.3102 10.7426C89.3756 10.7426 85.6382 12.2897 82.8563 15.0715C80.0745 17.8533 78.5274 21.5908 78.5274 25.5253C78.5274 29.4598 80.0745 33.1973 82.8563 35.9791C85.6382 38.761 89.3756 40.3081 93.3102 40.3081C97.2447 40.3081 100.982 38.761 103.764 35.9791C106.546 33.1973 108.093 29.4598 108.093 25.5253C108.093 21.5908 106.546 17.8533 103.764 15.0715C100.982 12.2897 97.2447 10.7426 93.3102 10.7426Z" fill="#00F0FF"/>
<path fill-rule="evenodd" clip-rule="evenodd" d="M17.5972 13.0973L29.951 29.5507V13.3818C29.951 12.7665 30.0211 12.1411 30.2125 11.5543C30.3893 11.0125 30.6656 10.5203 31.0642 10.1105C31.4412 9.72289 31.8854 9.43077 32.3907 9.23791C32.9115 9.03911 33.4644 8.95734 34.0202 8.95734C34.5852 8.95734 35.1499 9.03673 35.6814 9.23321C36.1937 9.42259 36.6471 9.71098 37.0307 10.0998C37.4339 10.5087 37.713 11.0026 37.8916 11.5464C38.085 12.1353 38.1555 12.7639 38.1555 13.3818V37.927C38.1555 39.2269 37.8887 40.5825 36.9689 41.5586C36.0551 42.5284 34.7753 42.8384 33.483 42.8384C33.1388 42.8384 32.7947 42.8167 32.4538 42.7687C31.8076 42.6777 31.1935 42.4894 30.6168 42.1821C30.3289 42.0288 30.0553 41.8496 29.7985 41.6486C29.544 41.4494 29.3022 41.2348 29.0734 41.0066C28.4033 40.3385 27.8238 39.5528 27.2394 38.8091C27.2268 38.7932 27.2149 38.7768 27.2036 38.7599L15.1974 22.5746V38.4139C15.1974 39.034 15.1202 39.6607 14.9155 40.2482C14.535 41.3402 13.7287 42.1496 12.649 42.5566C12.1271 42.7533 11.5772 42.8384 11.0207 42.8384C10.4541 42.8384 9.89109 42.7552 9.35958 42.5547C8.28553 42.1494 7.48934 41.3154 7.11816 40.2309C6.91882 39.6484 6.84399 39.0276 6.84399 38.4139V14.3412C6.84399 13.8439 6.87367 13.3425 6.95298 12.8512C7.19057 11.3794 7.87216 10.4086 9.16665 9.66734C9.16842 9.66629 9.16994 9.66546 9.17175 9.66448L9.18749 9.65591C10.3189 9.02356 11.618 8.82639 12.8939 9.0385C13.778 9.18548 14.6117 9.58983 15.2776 10.1894C15.487 10.3779 15.684 10.5801 15.8702 10.7915C16.4976 11.5037 17.0415 12.3172 17.5924 13.0903C17.5931 13.0913 17.5938 13.0922 17.5946 13.0932L17.5972 13.0973ZM16.314 14.0623C16.3034 14.0492 16.2932 14.0358 16.2834 14.0222C15.765 13.2946 15.253 12.5247 14.6627 11.8546C14.1003 11.2161 13.4884 10.7663 12.6339 10.6242C11.7206 10.4724 10.7866 10.6059 9.97439 11.0585C9.09703 11.5756 8.70295 12.0895 8.53911 13.1045C8.47358 13.5105 8.45368 13.9304 8.45368 14.3412V38.4139C8.45368 38.8477 8.49912 39.301 8.64024 39.7133C8.85601 40.3438 9.3014 40.8149 9.92633 41.0507C10.2737 41.1818 10.651 41.2287 11.0207 41.2287C11.381 41.2287 11.7439 41.1802 12.0824 41.0526C12.3876 40.9376 12.6582 40.7661 12.8928 40.5392C13.1292 40.3107 13.2908 40.0286 13.3985 39.7195C13.5424 39.3065 13.5877 38.8491 13.5877 38.4139V20.1414C13.5877 20.1285 13.5884 20.1158 13.5902 20.1034C13.6016 19.8632 13.7195 19.6404 13.9141 19.4962C14.2704 19.232 14.7735 19.3067 15.0377 19.6629L28.4946 37.8039L28.5007 37.8114C28.5018 37.8129 28.5029 37.8139 28.5036 37.8152C28.6954 38.0592 28.8867 38.304 29.0806 38.5462C29.6081 39.2051 30.1177 39.8591 30.7874 40.3835C30.9708 40.5271 31.1662 40.6557 31.3719 40.7653C31.7772 40.9812 32.2215 41.1128 32.6753 41.1768C32.9423 41.2143 33.2133 41.2287 33.4828 41.2287C34.2981 41.2287 35.2132 41.0783 35.7985 40.4571C36.4112 39.8068 36.5457 38.7817 36.5457 37.927V13.3818C36.5457 12.9372 36.5023 12.4693 36.363 12.045C36.263 11.7407 36.1118 11.4565 35.8855 11.2271C35.6698 11.0084 35.4143 10.849 35.1262 10.7426C34.7751 10.6128 34.3927 10.567 34.02 10.567C33.6628 10.567 33.2986 10.6131 32.9633 10.7411C32.6786 10.8498 32.4284 11.0123 32.2158 11.2309C31.9909 11.4621 31.8406 11.747 31.7411 12.0519C31.6034 12.4743 31.5605 12.9395 31.5605 13.3818V31.9597C31.5605 31.9741 31.5594 31.9883 31.5572 32.0021C31.5447 32.2389 31.4285 32.4585 31.2372 32.6019C30.8826 32.8678 30.3795 32.7959 30.1134 32.4415L16.314 14.0623ZM129.446 12.7243L141.799 29.1773V13.0084C141.799 12.3931 141.869 11.7678 142.061 11.1809C142.237 10.6391 142.514 10.147 142.912 9.73721C143.289 9.34954 143.734 9.05742 144.239 8.86453C144.76 8.66573 145.313 8.58395 145.868 8.58395C146.433 8.58395 146.998 8.66338 147.53 8.85986C148.042 9.04925 148.495 9.33763 148.879 9.72647C149.282 10.1353 149.561 10.6292 149.74 11.173C149.933 11.762 150.004 12.3906 150.004 13.0084V37.5536C150.004 38.8536 149.737 40.2092 148.817 41.1853C147.903 42.1551 146.623 42.4651 145.331 42.4651C144.987 42.4651 144.643 42.4433 144.302 42.3953C143.985 42.3506 143.671 42.282 143.366 42.1855C143.36 42.1841 143.354 42.1826 143.348 42.1806C143.043 42.0853 142.747 41.9592 142.465 41.8088C142.177 41.6555 141.903 41.4762 141.647 41.2753C141.392 41.0761 141.15 40.8615 140.922 40.6333C140.688 40.4007 140.469 40.1548 140.261 39.8988C140.261 39.8977 140.26 39.897 140.259 39.8963L140.252 39.8872C140.059 39.6527 139.867 39.4141 139.676 39.175C139.479 38.9293 139.282 38.6835 139.087 38.436C139.075 38.42 139.063 38.4036 139.052 38.3868L127.045 22.2012V38.0406C127.045 38.6607 126.968 39.2874 126.764 39.8749C126.572 40.4237 126.276 40.9147 125.859 41.3204C125.857 41.3215 125.856 41.3225 125.855 41.324L125.854 41.3247C125.462 41.7015 125.008 41.9909 124.497 42.1832C123.975 42.3799 123.426 42.465 122.869 42.465C122.302 42.465 121.739 42.3818 121.208 42.1813C120.694 41.9873 120.242 41.6924 119.854 41.3041L119.853 41.3038C119.444 40.8947 119.154 40.4041 118.966 39.8575C118.767 39.2751 118.692 38.6542 118.692 38.0406V13.9679C118.692 13.4706 118.722 12.9691 118.801 12.4778C118.87 12.0555 118.977 11.6304 119.15 11.238C119.16 11.2138 119.172 11.1901 119.185 11.167C119.375 10.784 119.622 10.4375 119.921 10.1313C120.243 9.80021 120.614 9.52333 121.015 9.29399C121.022 9.28969 121.03 9.2856 121.038 9.28158C121.442 9.05561 121.872 8.88048 122.321 8.76274C122.775 8.64333 123.242 8.58395 123.712 8.58395C124.057 8.58395 124.402 8.6086 124.742 8.66512C125.059 8.71787 125.373 8.79961 125.672 8.91913C125.688 8.92542 125.703 8.93226 125.718 8.93957C125.969 9.04411 126.214 9.16522 126.445 9.30753C126.687 9.45621 126.915 9.62609 127.126 9.81602C127.335 10.0045 127.532 10.2067 127.718 10.4181C127.926 10.6538 128.121 10.9013 128.305 11.1556C128.306 11.157 128.307 11.1583 128.308 11.1598L128.316 11.171L128.342 11.2064C128.711 11.708 129.079 12.2098 129.441 12.717C129.441 12.7181 129.442 12.7192 129.443 12.7204L129.446 12.7243ZM128.162 13.6887C128.151 13.6757 128.141 13.6624 128.132 13.6488C127.775 13.148 127.41 12.6527 127.046 12.1574L127.023 12.1254C127.016 12.1169 127.009 12.1082 127.003 12.0993C126.848 11.8861 126.685 11.6789 126.511 11.4813C126.366 11.3166 126.213 11.1581 126.05 11.0113C125.911 10.8866 125.761 10.776 125.602 10.6785C125.443 10.5806 125.277 10.4948 125.105 10.4224C125.094 10.4187 125.084 10.4149 125.074 10.4109C124.884 10.335 124.684 10.2843 124.482 10.2508C124.229 10.2087 123.969 10.1936 123.712 10.1936C123.38 10.1936 123.05 10.2329 122.729 10.3172C122.412 10.4005 122.109 10.5256 121.822 10.6851L121.817 10.6884C121.816 10.689 121.815 10.6896 121.814 10.6902C121.545 10.8444 121.289 11.029 121.072 11.2518C120.893 11.4358 120.742 11.6425 120.627 11.8723L120.624 11.8808C120.623 11.8826 120.622 11.8842 120.622 11.8861C120.505 12.1518 120.434 12.4452 120.387 12.7311C120.322 13.1371 120.302 13.5571 120.302 13.9679V38.0406C120.302 38.4743 120.347 38.9277 120.489 39.3399C120.595 39.6522 120.758 39.9338 120.991 40.169L120.993 40.1712C121.217 40.397 121.477 40.5653 121.775 40.6775C122.122 40.8086 122.5 40.8555 122.869 40.8555C123.23 40.8555 123.592 40.807 123.931 40.6794C124.236 40.5644 124.507 40.3929 124.741 40.166C124.978 39.9374 125.139 39.6554 125.247 39.3463C125.391 38.9333 125.436 38.4759 125.436 38.0407V19.768C125.436 19.7551 125.437 19.7425 125.439 19.73C125.45 19.4899 125.568 19.2671 125.763 19.1228C126.119 18.8586 126.622 18.9334 126.886 19.2895L140.343 37.4307L140.349 37.4384C140.351 37.4394 140.351 37.4405 140.352 37.442C140.544 37.686 140.735 37.9307 140.929 38.1729C141.116 38.4067 141.305 38.639 141.494 38.8687L141.505 38.8816C141.506 38.8834 141.508 38.8845 141.509 38.8863C141.681 39.0983 141.862 39.3021 142.055 39.4947C142.239 39.6775 142.432 39.8505 142.636 40.0102C142.82 40.1538 143.015 40.2825 143.221 40.3921C143.414 40.4953 143.617 40.5803 143.827 40.6457C143.834 40.6479 143.841 40.6503 143.848 40.653C144.068 40.7228 144.295 40.7712 144.524 40.8035C144.791 40.8411 145.062 40.8555 145.332 40.8555C146.147 40.8555 147.062 40.705 147.647 40.0838C148.26 39.4335 148.394 38.4084 148.394 37.5537V13.0084C148.394 12.5639 148.351 12.096 148.212 11.6717C148.112 11.3673 147.961 11.0831 147.734 10.8537C147.519 10.635 147.263 10.4757 146.975 10.3692C146.624 10.2394 146.241 10.1936 145.869 10.1936C145.511 10.1936 145.147 10.2397 144.812 10.3677C144.527 10.4764 144.277 10.6389 144.065 10.8575C143.84 11.0887 143.689 11.3736 143.59 11.6785C143.452 12.1009 143.409 12.5661 143.409 13.0084V31.5863C143.409 31.6007 143.408 31.615 143.406 31.6288C143.393 31.8656 143.277 32.0851 143.086 32.2285C142.731 32.4945 142.228 32.4225 141.962 32.0681L128.162 13.6887ZM40.9448 14.3519C40.746 13.8311 40.6642 13.2782 40.6642 12.7223C40.6642 12.1573 40.7436 11.5927 40.9401 11.0612C41.1295 10.5489 41.4178 10.0954 41.8067 9.71192C42.2155 9.30865 42.7095 9.02956 43.2532 8.85099C43.8422 8.65763 44.4708 8.58703 45.0887 8.58703H63.4963C64.1142 8.58703 64.7428 8.65763 65.3317 8.85099C65.8755 9.02956 66.3695 9.30865 66.7783 9.71192C67.1672 10.0954 67.4555 10.5489 67.6449 11.0612C67.8414 11.5927 67.9209 12.1573 67.9209 12.7223C67.9209 13.2782 67.839 13.8311 67.6402 14.3519C67.4473 14.8572 67.1553 15.3013 66.7676 15.6784C66.3578 16.077 65.8656 16.3533 65.3238 16.53C64.737 16.7215 64.1116 16.7916 63.4963 16.7916H45.0887C44.4733 16.7916 43.848 16.7215 43.2612 16.53C42.7194 16.3533 42.2272 16.077 41.8174 15.6784C41.4298 15.3013 41.1377 14.8572 40.9448 14.3519ZM42.2739 12.7223C42.2739 13.0796 42.32 13.4438 42.4479 13.779C42.5566 14.0638 42.7191 14.314 42.9377 14.5266C43.1689 14.7515 43.4539 14.9018 43.7588 15.0013C44.1811 15.1391 44.6464 15.1819 45.0887 15.1819H63.4963C63.9386 15.1819 64.4039 15.1391 64.8262 15.0013C65.1311 14.9018 65.416 14.7515 65.6473 14.5266C65.8659 14.314 66.0284 14.0638 66.1371 13.7791C66.2651 13.4438 66.3111 13.0796 66.3111 12.7223C66.3111 12.3496 66.2654 11.9673 66.1356 11.6162C66.0291 11.3281 65.8698 11.0726 65.6511 10.8569C65.4217 10.6306 65.1374 10.4793 64.8331 10.3794C64.4088 10.2401 63.9409 10.1967 63.4963 10.1967H45.0887C44.6441 10.1967 44.1762 10.2401 43.7519 10.3794C43.4476 10.4793 43.1633 10.6306 42.9339 10.8569C42.7152 11.0726 42.5559 11.3281 42.4494 11.6162C42.3196 11.9673 42.2739 12.3496 42.2739 12.7223ZM40.9448 39.9578C40.746 39.437 40.6642 38.8841 40.6642 38.3282C40.6642 37.7632 40.7436 37.1986 40.9401 36.6671C41.1295 36.1547 41.4178 35.7013 41.8067 35.3178C42.2155 34.9146 42.7095 34.6354 43.2532 34.4569C43.8422 34.2635 44.4708 34.1929 45.0887 34.1929H63.4963C64.1142 34.1929 64.7428 34.2635 65.3317 34.4569C65.8755 34.6354 66.3695 34.9146 66.7783 35.3178C67.1672 35.7013 67.4555 36.1547 67.6449 36.667C67.8414 37.1986 67.9209 37.7632 67.9209 38.3282C67.9209 38.8841 67.839 39.437 67.6402 39.9578C67.4473 40.4631 67.1553 40.9072 66.7676 41.2843C66.3578 41.6829 65.8656 41.9592 65.3238 42.136C64.737 42.3273 64.1116 42.3975 63.4963 42.3975H45.0887C44.4733 42.3975 43.848 42.3273 43.2612 42.136C42.7194 41.9592 42.2272 41.6829 41.8174 41.2843C41.4298 40.9072 41.1377 40.4631 40.9448 39.9578ZM42.2739 38.3282C42.2739 38.6855 42.32 39.0497 42.4479 39.385C42.5566 39.6697 42.7191 39.9199 42.9377 40.1325C43.1689 40.3573 43.4539 40.5077 43.7588 40.6071C44.1811 40.7449 44.6464 40.7878 45.0887 40.7878H63.4963C63.9386 40.7878 64.4039 40.7449 64.8262 40.6071C65.1311 40.5077 65.416 40.3573 65.6473 40.1325C65.8659 39.9198 66.0284 39.6697 66.1371 39.385C66.2651 39.0497 66.3111 38.6855 66.3111 38.3282C66.3111 37.9555 66.2654 37.5732 66.1356 37.2221C66.0291 36.934 65.8698 36.6785 65.6511 36.4628C65.4217 36.2365 65.1374 36.0853 64.8331 35.9854C64.4088 35.846 63.9409 35.8026 63.4963 35.8026H45.0887C44.6441 35.8026 44.1762 35.846 43.7519 35.9854C43.4476 36.0853 43.1633 36.2365 42.9339 36.4628C42.7152 36.6785 42.5559 36.934 42.4494 37.2221C42.3196 37.5732 42.2739 37.9555 42.2739 38.3282ZM40.9448 27.1548C40.566 26.1626 40.5724 24.8589 40.9401 23.8641C41.1295 23.3518 41.4179 22.8984 41.8067 22.5149C42.2155 22.1116 42.7095 21.8325 43.2533 21.6539C43.8422 21.4606 44.4708 21.39 45.0887 21.39H63.4963C64.1142 21.39 64.7428 21.4606 65.3317 21.6539C65.8755 21.8325 66.3695 22.1116 66.7783 22.5149C67.1672 22.8984 67.4555 23.3518 67.6449 23.8641C68.0126 24.8589 68.019 26.1626 67.6402 27.1548C67.4473 27.6602 67.1553 28.1042 66.7676 28.4813C66.3578 28.8799 65.8656 29.1563 65.3238 29.333C64.737 29.5244 64.1116 29.5946 63.4963 29.5946H45.0887C44.4733 29.5946 43.848 29.5244 43.2612 29.333C42.7194 29.1563 42.2272 28.8799 41.8174 28.4813C41.4298 28.1043 41.1377 27.6601 40.9448 27.1548ZM42.4479 26.582C42.5566 26.8667 42.7191 27.1169 42.9377 27.3295C43.1689 27.5544 43.4539 27.7048 43.7588 27.8042C44.1811 27.942 44.6464 27.9849 45.0887 27.9849H63.4963C63.9386 27.9849 64.4039 27.942 64.8262 27.8042C65.1311 27.7048 65.416 27.5544 65.6473 27.3295C65.8659 27.1169 66.0284 26.8667 66.1371 26.582C66.3758 25.9567 66.3672 25.0457 66.1356 24.4191C66.0291 24.1311 65.8698 23.8755 65.6511 23.6598C65.4217 23.4335 65.1375 23.2823 64.8331 23.1824C64.4088 23.0431 63.9409 22.9996 63.4964 22.9996H45.0887C44.6441 22.9996 44.1762 23.0431 43.7519 23.1824C43.4476 23.2823 43.1633 23.4335 42.9339 23.6598C42.7152 23.8755 42.5559 24.1311 42.4494 24.4191C42.2178 25.0458 42.2091 25.9566 42.4479 26.582ZM79.8764 42.1554C80.2207 42.4337 80.2762 42.9392 79.9985 43.2846C79.7207 43.6301 79.2133 43.6858 78.8682 43.4068C76.2007 41.2506 74.0391 38.5168 72.56 35.4207C71.0815 32.3254 70.3244 28.9552 70.3244 25.5253C70.3244 19.4085 72.7322 13.5965 77.0568 9.27196C81.3814 4.94742 87.1933 2.53955 93.3102 2.53955C99.427 2.53955 105.239 4.94742 109.563 9.27196C113.888 13.5965 116.296 19.4085 116.296 25.5253C116.296 31.0311 114.346 36.3053 110.761 40.4837C107.183 44.6549 102.238 47.4195 96.7986 48.2476C96.3591 48.3145 95.9489 48.011 95.8829 47.5716C95.8169 47.1325 96.1197 46.7234 96.5584 46.6566C101.616 45.8867 106.213 43.3167 109.541 39.4384C112.876 35.5517 114.686 30.6463 114.686 25.5253C114.686 19.8363 112.447 14.4322 108.425 10.4101C104.403 6.38802 98.9991 4.14924 93.3102 4.14924C87.6212 4.14924 82.217 6.38802 78.1949 10.4101C74.1728 14.4322 71.9341 19.8363 71.9341 25.5253C71.9341 28.7147 72.6334 31.8496 74.0085 34.7283C75.3841 37.608 77.3954 40.15 79.8764 42.1554ZM93.0066 46.9013C93.4496 46.9072 93.8048 47.2703 93.7995 47.7135C93.7943 48.1568 93.4304 48.5128 92.9868 48.5068C91.8044 48.491 90.624 48.3854 89.458 48.1885C88.2958 47.9923 87.1495 47.706 86.0315 47.3328C85.6107 47.1924 85.3838 46.7368 85.5245 46.3162C85.6653 45.8956 86.1204 45.6689 86.541 45.8093C87.5793 46.156 88.6441 46.4208 89.7235 46.603C90.8084 46.7862 91.9065 46.8865 93.0066 46.9013ZM81.7182 13.9334C84.8025 10.8491 88.9478 9.13287 93.3102 9.13287C97.6725 9.13287 101.818 10.8491 104.902 13.9334C107.986 17.0177 109.703 21.1629 109.703 25.5253C109.703 29.8877 107.986 34.0329 104.902 37.1173C101.818 40.2016 97.6725 41.9178 93.3102 41.9178C88.9478 41.9178 84.8025 40.2016 81.7182 37.1173C78.6339 34.0329 76.9177 29.8877 76.9177 25.5253C76.9177 21.1629 78.6339 17.0177 81.7182 13.9334ZM93.3102 10.7426C89.3756 10.7426 85.6382 12.2897 82.8563 15.0715C80.0745 17.8533 78.5274 21.5908 78.5274 25.5253C78.5274 29.4598 80.0745 33.1973 82.8563 35.9791C85.6382 38.761 89.3756 40.3081 93.3102 40.3081C97.2447 40.3081 100.982 38.761 103.764 35.9791C106.546 33.1973 108.093 29.4598 108.093 25.5253C108.093 21.5908 106.546 17.8533 103.764 15.0715C100.982 12.2897 97.2447 10.7426 93.3102 10.7426Z" stroke="#00F0FF" stroke-width="1.6" mask="url(#path-2-outside-1_66_17)"/>
<path fill-rule="evenodd" clip-rule="evenodd" d="M157.756 46.681C157.915 46.4425 158.238 46.378 158.476 46.5371C158.715 46.6961 158.779 47.0184 158.62 47.2569C158.601 47.2862 151.865 57.4898 145.919 57.5135C145.073 57.5168 144.408 57.3626 143.899 57.0916C143.196 56.7176 142.797 56.1393 142.632 55.4487C142.48 54.8076 142.54 54.0782 142.752 53.3402C143.083 52.1889 143.796 50.9899 144.64 50.087C145.739 48.9117 146.899 48.4535 147.754 48.515C148.127 48.5418 148.452 48.6625 148.708 48.864C148.978 49.0764 149.163 49.3697 149.242 49.7301C149.39 50.4112 149.129 51.3452 148.25 52.3863C147.625 53.127 146.762 53.864 145.86 54.458C145.157 54.9206 144.425 55.299 143.754 55.5289C143.881 55.7962 144.087 56.02 144.386 56.1791C144.749 56.3722 145.25 56.482 145.915 56.4794C151.299 56.4579 157.738 46.709 157.756 46.681ZM143.75 53.6241C143.664 53.9221 143.609 54.2134 143.591 54.4888C144.13 54.2854 144.718 53.9723 145.292 53.5941C146.112 53.0546 146.894 52.3868 147.459 51.7171C148.105 50.9521 148.314 50.3433 148.228 49.9491C148.203 49.8332 148.147 49.7419 148.067 49.6792C147.974 49.6057 147.842 49.5607 147.681 49.5492C147.097 49.5071 146.256 49.8713 145.395 50.7927C144.658 51.58 144.037 52.6236 143.75 53.6241Z" fill="white" stroke="white"/>
<path fill-rule="evenodd" clip-rule="evenodd" d="M127.773 63.6298C127.785 63.9154 127.564 64.1569 127.278 64.1692C126.993 64.1815 126.751 63.9599 126.739 63.6744C126.739 63.6643 126.573 60.1976 126.99 55.7136C127.021 55.3757 127.055 55.0315 127.091 54.6823C124.456 57.1467 120.474 59.8806 117.521 57.4227C117.301 57.2402 117.271 56.9142 117.454 56.6947C117.636 56.4752 117.962 56.4453 118.182 56.6278C120.875 58.8693 124.951 55.4502 127.276 53.0573C127.59 50.5304 128.049 47.8271 128.743 45.2889C129.7 41.7866 131.106 38.593 133.192 36.5807C133.725 36.0664 134.224 35.771 134.661 35.6849C135.058 35.6066 135.408 35.6867 135.698 35.9196C135.953 36.124 136.137 36.4399 136.241 36.8616C136.424 37.6109 136.357 38.7807 135.956 40.3249C135.436 42.3303 134.646 44.3244 133.614 46.2509C132.585 48.1723 131.316 50.0248 129.837 51.7523C129.826 51.7661 129.81 51.7853 129.758 51.8469C129.535 52.1142 129.002 52.7494 128.262 53.5239C128.168 54.3071 128.088 55.0717 128.02 55.8068C127.61 60.2152 127.773 63.6199 127.773 63.6298ZM129.74 45.5606C129.193 47.5654 128.793 49.6807 128.498 51.7283C128.709 51.4861 128.867 51.2967 128.963 51.1818C128.984 51.1568 129.001 51.137 129.051 51.0791C130.484 49.4053 131.71 47.6156 132.702 45.7642C133.695 43.9103 134.455 41.9926 134.955 40.0654C135.31 38.6946 135.381 37.6999 135.235 37.105C135.188 36.9141 135.125 36.7876 135.049 36.7267C135.009 36.6942 134.945 36.686 134.86 36.7029C134.615 36.7512 134.294 36.9563 133.91 37.327C131.975 39.1932 130.653 42.2205 129.74 45.5606Z" fill="white" stroke="white"/>
<path fill-rule="evenodd" clip-rule="evenodd" d="M135.732 51.2967C135.998 51.1903 136.299 51.3192 136.406 51.5846C136.512 51.8501 136.383 52.1515 136.118 52.2579C136.102 52.2641 130.893 54.3305 127.976 58.4513C129.089 59.4423 133.654 62.3949 142.793 54.8575C143.013 54.6761 143.339 54.7079 143.521 54.9285C143.702 55.1491 143.67 55.475 143.45 55.6565C132.364 64.8002 127.241 59.2222 126.931 58.8641C126.772 58.6938 126.743 58.431 126.877 58.2276C129.919 53.6016 135.716 51.3035 135.732 51.2967Z" fill="white" stroke="white"/>
<path fill-rule="evenodd" clip-rule="evenodd" d="M114.493 56.1879C114.747 56.058 115.059 56.1588 115.188 56.413C115.318 56.6672 115.218 56.9786 114.963 57.1085C114.047 57.5768 113.363 58.2825 112.889 59.0684C112.324 60.0058 112.06 61.0493 112.056 61.9401C112.051 63.2137 112.481 64.1215 113.111 64.6527C113.454 64.9421 113.859 65.1208 114.285 65.1859C114.716 65.2517 115.169 65.202 115.6 65.0337C116.431 64.7093 117.19 63.9462 117.599 62.7202C117.602 62.7131 117.604 62.7061 117.607 62.6992C117.993 61.5272 118.075 60.1333 117.839 58.8143C117.619 57.5876 117.125 56.4351 116.346 55.6033C116.15 55.395 116.16 55.0673 116.368 54.8713C116.576 54.6753 116.904 54.6853 117.1 54.8936C118.023 55.8787 118.604 57.2187 118.857 58.6318C119.123 60.1155 119.028 61.6906 118.589 63.0215C118.587 63.0306 118.584 63.0396 118.581 63.0487C118.065 64.5953 117.074 65.571 115.977 65.9989C115.372 66.235 114.737 66.3046 114.131 66.2119C113.519 66.1186 112.936 65.861 112.442 65.4436C111.595 64.7288 111.016 63.5498 111.022 61.936C111.027 60.8724 111.337 59.6346 112.001 58.533C112.565 57.5971 113.386 56.7535 114.493 56.1879Z" fill="white" stroke="white"/>
<path fill-rule="evenodd" clip-rule="evenodd" d="M97.697 58.7782C97.6589 58.4948 97.8577 58.2343 98.1411 58.1962C98.4244 58.1581 98.685 58.3569 98.7231 58.6403C99.0393 60.9546 98.9977 63.0402 98.7669 64.953C98.5368 66.8604 98.1202 68.5916 97.6837 70.2054C97.6098 70.482 97.3256 70.6463 97.049 70.5724C96.7724 70.4985 96.6081 70.2143 96.682 69.9377C97.108 68.3626 97.5143 66.6759 97.7368 64.8313C97.9587 62.9919 97.9994 60.9909 97.697 58.7782Z" fill="white" stroke="white"/>
<path fill-rule="evenodd" clip-rule="evenodd" d="M95.9008 67.843C95.753 68.0871 95.4352 68.1652 95.1911 68.0174C94.9469 67.8696 94.8689 67.5518 95.0167 67.3077C95.3446 66.7665 95.7704 66.1437 96.2527 65.4911C96.7527 64.8148 97.3109 64.1074 97.8825 63.426C98.4922 62.6991 99.1262 61.9901 99.7314 61.3662C100.298 60.7817 100.838 60.2748 101.306 59.9007C101.886 59.438 102.378 59.1706 102.793 59.0568C103.23 58.9371 103.596 58.9788 103.898 59.1438C104.199 59.3086 104.41 59.5829 104.545 59.9324C104.691 60.314 104.746 60.7927 104.729 61.3067C104.722 61.5232 104.738 61.7364 104.786 61.9305C104.84 62.1521 104.939 62.346 105.101 62.4808C105.27 62.622 105.521 62.7125 105.882 62.7241C106.17 62.7332 106.52 62.6919 106.943 62.5875C110.629 61.677 111.937 58.6543 111.941 58.6456C112.056 58.3847 112.361 58.2667 112.622 58.382C112.883 58.4974 113.001 58.8024 112.886 59.0634C112.881 59.0734 111.372 62.5605 107.19 63.5933C106.675 63.7205 106.231 63.7704 105.85 63.7582C105.234 63.7385 104.774 63.5586 104.436 63.2757C104.089 62.9864 103.885 62.6024 103.78 62.1779C103.708 61.889 103.685 61.5811 103.695 61.2743C103.707 60.888 103.674 60.5464 103.579 60.3015C103.532 60.1788 103.474 60.0909 103.403 60.0523C103.333 60.014 103.223 60.0112 103.065 60.0545C102.785 60.1313 102.419 60.3384 101.951 60.7118C101.516 61.0595 101.009 61.5359 100.474 62.0881C99.8938 62.6858 99.2773 63.3757 98.6774 64.0911C98.1088 64.7689 97.5631 65.4596 97.0842 66.1075C96.6145 66.7429 96.2065 67.3386 95.9008 67.843Z" fill="white" stroke="white"/>
<path fill-rule="evenodd" clip-rule="evenodd" d="M84.8866 52.037C85.1117 51.8612 85.4368 51.9011 85.6126 52.1262C85.7884 52.3513 85.7485 52.6763 85.5234 52.8521C85.1231 53.1658 84.7216 53.5589 84.5973 53.9449C84.5056 54.2298 84.6183 54.5514 85.1405 54.8841C86.166 55.5373 89.7306 54.3428 93.812 52.9751C98.063 51.5505 102.853 49.9454 106.308 50.024C106.593 50.0296 106.82 50.2657 106.815 50.5513C106.809 50.8368 106.573 51.0638 106.287 51.0582C103.012 50.9837 98.3117 52.5587 94.1405 53.9566C89.8099 55.4077 86.0277 56.6752 84.5849 55.7561C83.5608 55.1038 83.3787 54.3526 83.6118 53.6285C83.8124 53.0055 84.3552 52.4534 84.8866 52.037Z" fill="white" stroke="white"/>
<path fill-rule="evenodd" clip-rule="evenodd" d="M96.1393 42.4575C96.3846 42.3108 96.7024 42.3907 96.8491 42.6359C96.9958 42.8812 96.9159 43.199 96.6707 43.3457C96.3516 43.5371 96.1415 43.7501 95.9826 44.0511C95.8029 44.3915 95.6715 44.8609 95.525 45.5276C94.9212 48.275 93.9808 53.8253 93.5653 61.4521C93.2881 66.5406 93.2441 72.554 93.6885 79.2791C93.7064 79.5646 93.4895 79.8107 93.2039 79.8286C92.9183 79.8465 92.6722 79.6295 92.6543 79.3439C92.2074 72.5795 92.2519 66.5253 92.5311 61.3993C92.951 53.692 93.9011 48.0842 94.5111 45.3086C94.6767 44.5552 94.8332 44.0097 95.066 43.5685C95.3197 43.0881 95.6472 42.7528 96.1393 42.4575Z" fill="white" stroke="white"/>
<path fill-rule="evenodd" clip-rule="evenodd" d="M91.0568 61.9535C91.3357 61.8886 91.6144 62.062 91.6794 62.3408C91.7443 62.6197 91.5709 62.8984 91.2921 62.9633C89.9082 63.2869 85.5345 64.4665 80.7238 67.3828C80.2078 67.6956 79.6867 68.0285 79.1638 68.3824C80.0403 69.3186 80.4417 70.3303 80.4887 71.3646C80.536 72.4063 80.2176 73.4533 79.6616 74.4554C79.1222 75.4274 78.358 76.3584 77.4915 77.1984C76.3859 78.2701 75.1081 79.1996 73.9195 79.8777C72.613 80.623 71.387 81.0727 70.5766 81.089C68.7565 81.1254 68.0798 80.4509 68.0596 79.4397C68.0275 77.8395 70.1423 75.4125 71.2368 74.1564C71.3924 73.9779 71.5296 73.8204 71.5776 73.7639C73.4296 71.5826 75.4586 69.7796 77.4913 68.2949C77.2211 68.1004 76.9202 67.9102 76.5866 67.7251C74.4307 66.5289 72.3952 65.6133 70.6401 64.8239C69.8499 64.4685 69.1166 64.1386 68.4304 63.8083C67.7128 63.4629 67.0658 63.0837 66.505 62.6686C65.4381 61.8788 64.6863 60.9598 64.3538 59.8969C64.0172 58.821 64.1145 57.6241 64.7533 56.2971C64.9866 55.8124 65.2941 55.3086 65.6814 54.7854C67.0755 52.902 68.8256 51.0109 70.7164 49.374C72.4955 47.8337 74.4027 46.5153 76.261 45.6347C78.3879 44.6266 80.5 44.2533 82.0596 44.5263C82.8618 44.6667 83.5324 44.9781 84.0085 45.4626C84.5026 45.9655 84.7755 46.6358 84.7585 47.4737C84.7348 48.6389 84.1288 50.1437 82.7284 51.9813C81.4345 53.6792 79.8623 54.9549 78.245 55.8686C76.2963 56.9695 74.2793 57.543 72.6043 57.6953C72.3198 57.7211 72.0684 57.5114 72.0426 57.2269C72.0169 56.9425 72.2266 56.691 72.511 56.6652C74.058 56.5245 75.926 55.9919 77.7381 54.9683C79.2391 54.1202 80.7 52.934 81.9051 51.3527C83.1621 49.7033 83.7049 48.409 83.7243 47.4534C83.7353 46.9143 83.5701 46.4936 83.2704 46.1886C82.9528 45.8653 82.4738 45.652 81.8812 45.5483C80.5202 45.3101 78.6359 45.6555 76.7031 46.5715C74.9316 47.4111 73.1045 48.6756 71.3937 50.1567C69.5598 51.7443 67.8634 53.5773 66.5128 55.4019C66.1668 55.8694 65.8929 56.3177 65.6861 56.7473C65.1704 57.8185 65.0846 58.7615 65.3434 59.5887C65.6062 60.4289 66.2285 61.1762 67.1214 61.8372C67.626 62.2106 68.2175 62.5563 68.8806 62.8755C69.5281 63.1872 70.2683 63.5202 71.0659 63.8789C72.8307 64.6727 74.8775 65.5933 77.0895 66.8207C77.5774 67.0914 78.0054 67.3742 78.3782 67.6669C78.985 67.2504 79.59 66.8615 80.1884 66.4987C85.1363 63.4992 89.6338 62.2863 91.0568 61.9535ZM78.3044 68.9824C76.2664 70.4498 74.226 72.2452 72.3685 74.4331C72.2259 74.601 72.1291 74.7121 72.0195 74.8378C71.0135 75.9923 69.0698 78.223 69.0937 79.4195C69.1016 79.8148 69.494 80.076 70.5563 80.0548C71.1966 80.042 72.2436 79.6419 73.4085 78.9773C74.5269 78.3393 75.7293 77.4646 76.7696 76.4562C77.5696 75.6807 78.2705 74.8297 78.7572 73.9525C79.2243 73.1106 79.4926 72.2467 79.4545 71.4092C79.4174 70.5932 79.0829 69.785 78.3466 69.0255L78.3044 68.9824Z" fill="white" stroke="white"/>
</g>
<defs>
<filter id="filter0_d_66_17" x="0" y="0" width="164" height="90.3856" filterUnits="userSpaceOnUse" color-interpolation-filters="sRGB">
<feFlood flood-opacity="0" result="BackgroundImageFix"/>
<feColorMatrix in="SourceAlpha" type="matrix" values="0 0 0 0 0 0 0 0 0 0 0 0 0 0 0 0 0 0 127 0" result="hardAlpha"/>
<feOffset dy="4"/>
<feGaussianBlur stdDeviation="2"/>
<feComposite in2="hardAlpha" operator="out"/>
<feColorMatrix type="matrix" values="0 0 0 0 0.350982 0 0 0 0 0.922118 0 0 0 0 1 0 0 0 0.25 0"/>
<feBlend mode="normal" in2="BackgroundImageFix" result="effect1_dropShadow_66_17"/>
<feBlend mode="normal" in="SourceGraphic" in2="effect1_dropShadow_66_17" result="shape"/>
</filter>
</defs>
</svg>
